<?xml version="1.0" encoding="UTF-8"?>
<svg version="1.1" xmlns="http://www.w3.org/2000/svg" width="500" height="500">
<path d="M0 0 C1.16789063 0.33773437 2.33578125 0.67546875 3.5390625 1.0234375 C10.5377376 3.18244907 17.07223843 5.81290367 23.625 9.0625 C24.28798096 9.39080811 24.95096191 9.71911621 25.6340332 10.05737305 C29.44161507 12.01166824 32.84672044 14.09439182 36 17 C36 17.66 36 18.32 36 19 C31.52584799 19.2982768 28.00157358 18.82485676 23.6875 17.5625 C-1.32193309 10.38794003 -27.65099225 16.35623869 -49.9140625 28.60546875 C-54.55272687 31.2507378 -58.79027811 34.27238576 -62.99609375 37.56640625 C-65 39 -65 39 -67 39 C-67 39.66 -67 40.32 -67 41 C-67.66 41 -68.32 41 -69 41 C-69 41.66 -69 42.32 -69 43 C-69.78375 43.2475 -70.5675 43.495 -71.375 43.75 C-74.51710523 45.24624058 -74.50680001 45.99760145 -76 49 C-77.340676 50.51034661 -78.72040261 51.98640897 -80.125 53.4375 C-96.10623115 70.91134211 -101.97262288 92.74092815 -102.00390625 115.890625 C-101.18923405 132.38156524 -93.29063761 149.73372707 -82.6015625 162.01171875 C-81 164 -81 164 -80 167 C-79.34 167 -78.68 167 -78 167 C-78 167.66 -78 168.32 -78 169 C-77.43667969 169.25523437 -76.87335938 169.51046875 -76.29296875 169.7734375 C-73.71461611 171.1526585 -71.60921238 172.815032 -69.3125 174.625 C-57.80634104 183.05161441 -44.85875926 187.97906356 -31 191 C-29.83694336 191.26043091 -29.83694336 191.26043091 -28.65039062 191.52612305 C-8.00238933 195.21788525 10.92837324 190.88671957 29 181 C34.63842795 177.96069869 34.63842795 177.96069869 37.875 178.3125 C38.57625 178.539375 39.2775 178.76625 40 179 C41 182 41 182 40.03515625 184.1796875 C37.16711679 188.15420667 33.83245166 191.59836147 30.4375 195.125 C29.08009643 196.54242047 27.72454734 197.96161982 26.37109375 199.3828125 C25.77224365 200.00559082 25.17339355 200.62836914 24.55639648 201.27001953 C22.81322249 203.12403443 22.81322249 203.12403443 21 206 C20.34 206 19.68 206 19 206 C19 206.66 19 207.32 19 208 C16.95490436 209.79702191 14.90659367 211.47070723 12.75 213.125 C12.11392822 213.61637451 11.47785645 214.10774902 10.82250977 214.61401367 C-3.10531102 225.27205074 -16.84647372 232.85605869 -34 237 C-35.33998047 237.3403125 -35.33998047 237.3403125 -36.70703125 237.6875 C-52.28740257 240.97238063 -69.69295039 240.09499341 -85 236 C-86.0828125 235.75636719 -87.165625 235.51273438 -88.28125 235.26171875 C-105.46350669 231.02637277 -122.30453516 222.15783274 -136 211 C-136 210.34 -136 209.68 -136 209 C-136.66 209 -137.32 209 -138 209 C-138 208.34 -138 207.68 -138 207 C-138.66 207 -139.32 207 -140 207 C-140 206.34 -140 205.68 -140 205 C-140.66 205 -141.32 205 -142 205 C-142 204.34 -142 203.68 -142 203 C-142.66 203 -143.32 203 -144 203 C-144 202.34 -144 201.68 -144 201 C-144.87011719 200.6596875 -144.87011719 200.6596875 -145.7578125 200.3125 C-153.07527778 196.02910569 -157.93890234 185.27890729 -162 178 C-162.49242187 177.13375 -162.98484375 176.2675 -163.4921875 175.375 C-171.28952427 160.83074488 -175.06839283 145.38580063 -176 129 C-176.07089844 127.91847656 -176.14179688 126.83695313 -176.21484375 125.72265625 C-177.14834515 96.7094327 -166.91283896 70.03448942 -150 47 C-149.34 46.01 -148.68 45.02 -148 44 C-147.34 44 -146.68 44 -146 44 C-145.79375 43.29875 -145.5875 42.5975 -145.375 41.875 C-143.6165622 38.19826641 -141.19571859 35.52704921 -138 33 C-137.34 33 -136.68 33 -136 33 C-135.60361328 32.09652832 -135.60361328 32.09652832 -135.19921875 31.17480469 C-133.94433007 28.89904158 -132.84386773 27.78940472 -130.8125 26.203125 C-130.19632813 25.71972656 -129.58015625 25.23632812 -128.9453125 24.73828125 C-128.30335938 24.24714844 -127.66140625 23.75601563 -127 23.25 C-126.35804688 22.74339844 -125.71609375 22.23679687 -125.0546875 21.71484375 C-120.26844677 18 -120.26844677 18 -118 18 C-118 17.34 -118 16.68 -118 16 C-107.27626009 10.0276201 -96.66014626 4.86355623 -85 1 C-83.83984375 0.60941406 -82.6796875 0.21882813 -81.484375 -0.18359375 C-56.59363727 -7.94063873 -24.83950476 -7.65829235 0 0 Z " fill="#1B2F3F" transform="translate(289,105)"/>
<path d="M0 0 C0 0.66 0 1.32 0 2 C0.66 2 1.32 2 2 2 C2 2.66 2 3.32 2 4 C2.58652344 4.268125 3.17304688 4.53625 3.77734375 4.8125 C19.1669833 13.03473273 27.98090914 36.38872356 33.10546875 51.98046875 C37.63068914 67.25555767 38.94018124 83.18507726 37 99 C36.92152832 99.71833008 36.84305664 100.43666016 36.76220703 101.17675781 C34.32810417 122.84901583 26.28981049 141.26053495 13.53515625 158.8671875 C12.17961479 160.75045885 10.92410332 162.66286189 9.6875 164.625 C9.130625 165.40875 8.57375 166.1925 8 167 C7.34 167 6.68 167 6 167 C6 167.66 6 168.32 6 169 C5.34 169 4.68 169 4 169 C3.76925781 169.56460938 3.53851563 170.12921875 3.30078125 170.7109375 C-1.84811432 179.77175673 -13.68719538 186.89547495 -22 193 C-22.54446777 193.40138184 -23.08893555 193.80276367 -23.64990234 194.21630859 C-39.97957508 206.15904993 -57.47831385 213.73642414 -78 213 C-79.485 212.01 -79.485 212.01 -81 211 C-81.1875 208.375 -81.1875 208.375 -81 206 C-79.20874151 205.24902565 -77.41696564 204.49928538 -75.625 203.75 C-73.97564453 203.05777344 -73.97564453 203.05777344 -72.29296875 202.3515625 C-69.52459329 201.2153135 -66.74288344 200.1640309 -63.9375 199.125 C-59.0887101 197.20894593 -54.8782522 194.55884082 -50.54296875 191.68359375 C-43.46867749 187 -43.46867749 187 -41 187 C-41 186.34 -41 185.68 -41 185 C-38.91796875 183.08984375 -38.91796875 183.08984375 -36.1875 180.9375 C-35.29417969 180.22464844 -34.40085937 179.51179687 -33.48046875 178.77734375 C-31 177 -31 177 -28 176 C-28 175.34 -28 174.68 -28 174 C-27.34 174 -26.68 174 -26 174 C-25.690625 173.38125 -25.38125 172.7625 -25.0625 172.125 C-24.375 170.75 -23.6875 169.375 -23 168 C-22.34 168 -21.68 168 -21 168 C-20.75378906 167.2884375 -20.50757813 166.576875 -20.25390625 165.84375 C-18.84928448 162.65819035 -17.01942569 160.29058823 -14.9375 157.5 C-9.94791587 150.30846389 -7.49984975 142.23714959 -5 133.9375 C-4.80477753 133.28958496 -4.60955505 132.64166992 -4.40841675 131.97412109 C-1.03746588 121.11187119 -1.03746588 121.11187119 0.125 109.875 C0.12757813 109.02679688 0.13015625 108.17859375 0.1328125 107.3046875 C0.09134737 104.83883434 0.09134737 104.83883434 -1 102 C-1.99 102 -2.98 102 -4 102 C-4.29132813 102.845625 -4.58265625 103.69125 -4.8828125 104.5625 C-7.43949785 111.63760412 -10.0933803 117.31134837 -15 123 C-15.44988281 123.59167969 -15.89976562 124.18335938 -16.36328125 124.79296875 C-22.68726047 132.86272251 -31.73943129 137.9259511 -41 142 C-41.6703125 142.29777344 -42.340625 142.59554687 -43.03125 142.90234375 C-54.8129093 147.45640821 -69.68734722 148.0521088 -82 146 C-83.134375 145.814375 -84.26875 145.62875 -85.4375 145.4375 C-86.283125 145.293125 -87.12875 145.14875 -88 145 C-88 143.68 -88 142.36 -88 141 C-87.05640625 140.76925781 -86.1128125 140.53851563 -85.140625 140.30078125 C-67.84690723 135.96715771 -52.62703144 129.60316905 -42.625 114 C-32.4799905 95.2707517 -27.45188189 76.51286445 -32.4375 55.25 C-38.00888419 37.46442739 -48.44787306 21.30568397 -65 12 C-68.27512478 10.46190436 -71.57615471 9.16521186 -75 8 C-75.90153809 7.66154053 -76.80307617 7.32308105 -77.73193359 6.97436523 C-81.18756029 5.9440794 -84.11234189 5.68498142 -87.7109375 5.5859375 C-89.57685547 5.52792969 -89.57685547 5.52792969 -91.48046875 5.46875 C-92.76566406 5.4378125 -94.05085937 5.406875 -95.375 5.375 C-96.68339844 5.33632812 -97.99179688 5.29765625 -99.33984375 5.2578125 C-102.55975716 5.16380043 -105.7796688 5.07814179 -109 5 C-108.1328125 3.046875 -108.1328125 3.046875 -107 1 C-104.875 0.25 -104.875 0.25 -103 0 C-103 -0.66 -103 -1.32 -103 -2 C-66.91693216 -19.33545499 -35.50462017 -19.94690411 0 0 Z " fill="#C31535" transform="translate(345,143)"/>
<path d="M0 0 C0.33 0 0.66 0 1 0 C1 2.97 1 5.94 1 9 C2.2684375 9.12375 2.2684375 9.12375 3.5625 9.25 C6.82834812 9.96254868 9.07296799 11.05948961 11.91796875 12.7578125 C21.79848606 18.65275529 30.73793821 21.37071695 42 23 C42 23.66 42 24.32 42 25 C42.928125 25.12375 43.85625 25.2475 44.8125 25.375 C48 26 48 26 51 28 C53.58885171 28.29991069 56.09149082 28.50865225 58.6875 28.625 C59.38939453 28.66367188 60.09128906 28.70234375 60.81445312 28.7421875 C62.54254655 28.8362334 64.27123675 28.9191968 66 29 C67.3329937 56.84475738 55.46088282 80.46658425 39.296875 102.58618164 C38.65492188 103.28602173 38.65492188 103.28602173 38 104 C37.34 104 36.68 104 36 104 C36 104.66 36 105.32 36 106 C35.34 106 34.68 106 34 106 C33.76925781 106.56460938 33.53851563 107.12921875 33.30078125 107.7109375 C28.15188568 116.77175673 16.31280462 123.89547495 8 130 C7.45553223 130.40138184 6.91106445 130.80276367 6.35009766 131.21630859 C-9.97957508 143.15904993 -27.47831385 150.73642414 -48 150 C-48.99 149.34 -49.98 148.68 -51 148 C-51.1875 145.375 -51.1875 145.375 -51 143 C-49.20874151 142.24902565 -47.41696564 141.49928538 -45.625 140.75 C-43.97564453 140.05777344 -43.97564453 140.05777344 -42.29296875 139.3515625 C-39.52459329 138.2153135 -36.74288344 137.1640309 -33.9375 136.125 C-29.0887101 134.20894593 -24.8782522 131.55884082 -20.54296875 128.68359375 C-13.46867749 124 -13.46867749 124 -11 124 C-11 123.34 -11 122.68 -11 122 C-8.91796875 120.08984375 -8.91796875 120.08984375 -6.1875 117.9375 C-5.29417969 117.22464844 -4.40085937 116.51179688 -3.48046875 115.77734375 C-1 114 -1 114 2 113 C2 112.34 2 111.68 2 111 C2.66 111 3.32 111 4 111 C4.309375 110.38125 4.61875 109.7625 4.9375 109.125 C5.625 107.75 6.3125 106.375 7 105 C7.66 105 8.32 105 9 105 C9.24621094 104.2884375 9.49242187 103.576875 9.74609375 102.84375 C11.15071552 99.65819035 12.98057431 97.29058823 15.0625 94.5 C20.05208413 87.30846389 22.50015025 79.23714959 25 70.9375 C25.19522247 70.28958496 25.39044495 69.64166992 25.59158325 68.97412109 C28.96253412 58.11187119 28.96253412 58.11187119 30.125 46.875 C30.12757813 46.02679688 30.13015625 45.17859375 30.1328125 44.3046875 C30.09134737 41.83883434 30.09134737 41.83883434 29 39 C28.01 39 27.02 39 26 39 C25.70867187 39.845625 25.41734375 40.69125 25.1171875 41.5625 C22.56050215 48.63760412 19.9066197 54.31134837 15 60 C14.55011719 60.59167969 14.10023438 61.18335938 13.63671875 61.79296875 C7.31273953 69.86272251 -1.73943129 74.9259511 -11 79 C-12.00546875 79.44666016 -12.00546875 79.44666016 -13.03125 79.90234375 C-24.8129093 84.45640821 -39.68734722 85.0521088 -52 83 C-53.7015625 82.7215625 -53.7015625 82.7215625 -55.4375 82.4375 C-56.283125 82.293125 -57.12875 82.14875 -58 82 C-58 80.68 -58 79.36 -58 78 C-56.58460938 77.65388672 -56.58460938 77.65388672 -55.140625 77.30078125 C-37.84690723 72.96715771 -22.62703144 66.60316905 -12.625 51 C-5.33277364 37.53742825 -0.88832125 25.30505483 -0.375 9.9375 C-0.33632813 8.97650391 -0.29765625 8.01550781 -0.2578125 7.02539062 C-0.16461374 4.68377186 -0.07880815 2.34213963 0 0 Z " fill="#630E2A" transform="translate(315,206)"/>
<path d="M0 0 C0.80566406 0.00188324 1.61132812 0.00376648 2.44140625 0.00570679 C47.23846319 0.12828194 47.23846319 0.12828194 54.03125 6.23046875 C54.5778125 6.85566406 55.124375 7.48085938 55.6875 8.125 C55.1875 9.9375 55.1875 9.9375 53.6875 12.125 C47.61625119 14.83186031 41.76171148 15.97405497 35.19140625 16.7890625 C33.69209312 16.97826767 33.69209312 16.97826767 32.16249084 17.17129517 C21.99353315 18.3563197 11.88190926 18.58051307 1.65307617 18.51611328 C-1.37822282 18.49998285 -4.40819298 18.51611168 -7.43945312 18.53515625 C-17.52510339 18.54675281 -27.42749011 18.10104475 -37.43359375 16.7890625 C-38.79352196 16.61472183 -38.79352196 16.61472183 -40.18092346 16.43685913 C-45.04326105 15.72711086 -49.09353736 14.81443573 -53.3125 12.125 C-54.25 9.5625 -54.25 9.5625 -54.3125 7.125 C-52.88897617 4.27795233 -51.28741564 4.12633334 -48.3125 3.125 C-41.46676906 1.62871881 -34.4904965 0.97801522 -27.50390625 0.57421875 C-26.77178421 0.53189117 -26.03966217 0.4895636 -25.28535461 0.44595337 C-16.85803916 -0.0028667 -8.43713477 -0.03002967 0 0 Z " fill="#C4C7CC" transform="translate(247.3125,391.875)"/>
<path d="M0 0 C0.70125 0.495 1.4025 0.99 2.125 1.5 C2.125 2.16 2.125 2.82 2.125 3.5 C2.785 3.5 3.445 3.5 4.125 3.5 C8.40975339 10.32882572 9.41820255 16.49585995 8.125 24.5 C5.5669138 30.46594761 1.35628354 34.77997615 -3.875 38.5 C-9.83086054 40.48528685 -16.60390754 40.376562 -22.4375 38.125 C-24.25 36.91666667 -26.0625 35.70833333 -27.875 34.5 C-27.875 33.84 -27.875 33.18 -27.875 32.5 C-28.535 32.5 -29.195 32.5 -29.875 32.5 C-34.3708083 26.73974562 -34.5900304 21.37574067 -34.390625 14.17578125 C-33.53053961 8.04441496 -30.88085986 4.13012738 -26.28125 0.10546875 C-18.25709207 -5.687482 -8.32463415 -4.34328738 0 0 Z " fill="#9F0D30" transform="translate(262.875,199.5)"/>
<path d="M0 0 C0.66 0.33 1.32 0.66 2 1 C-0.21606353 5.5552417 -2.4345307 6.96010946 -7 9 C-7.66 9.66 -8.32 10.32 -9 11 C-11.125 11.625 -11.125 11.625 -13 12 C-14.81602517 16.53832753 -14.81602517 16.53832753 -14 21 C-13.443125 20.54625 -12.88625 20.0925 -12.3125 19.625 C-9.0998229 17.36744312 -6.10866471 16.2015754 -2.25 15.5 C-1.5075 15.335 -0.765 15.17 0 15 C0.33 14.34 0.66 13.68 1 13 C1.99 13 2.98 13 4 13 C3.505 11.02 3.505 11.02 3 9 C5.02045442 9.60183749 7.02111039 10.27306096 9 11 C9.495 11.99 9.495 11.99 10 13 C9.01 13.66 8.02 14.32 7 15 C6.53078125 15.48597656 6.0615625 15.97195313 5.578125 16.47265625 C-4.18521113 25.92182563 -20.82020986 27.33220883 -33.734375 28.1171875 C-37 28 -37 28 -40 26 C-40.1875 23.375 -40.1875 23.375 -40 21 C-38.20874151 20.24902565 -36.41696564 19.49928538 -34.625 18.75 C-33.52542969 18.28851563 -32.42585938 17.82703125 -31.29296875 17.3515625 C-28.52459329 16.2153135 -25.74288344 15.1640309 -22.9375 14.125 C-18.0887101 12.20894593 -13.8782522 9.55884082 -9.54296875 6.68359375 C-2.46867749 2 -2.46867749 2 0 2 C0 1.34 0 0.68 0 0 Z " fill="#561E39" transform="translate(304,328)"/>
<path d="M0 0 C2 1 2 1 3 3 C3.66 3.33 4.32 3.66 5 4 C4.67 5.32 4.34 6.64 4 8 C4.66 8.33 5.32 8.66 6 9 C5.34 10.32 4.68 11.64 4 13 C5.98 13 7.96 13 10 13 C10 13.33 10 13.66 10 14 C7.33397504 14.33931227 4.66736986 14.67157176 2 15 C1.25621094 15.09539062 0.51242187 15.19078125 -0.25390625 15.2890625 C-7.67351542 16.19231927 -14.58290312 16.23618281 -22 15 C-23.134375 14.814375 -24.26875 14.62875 -25.4375 14.4375 C-26.283125 14.293125 -27.12875 14.14875 -28 14 C-28 12.68 -28 11.36 -28 10 C-27.05640625 9.76925781 -26.1128125 9.53851563 -25.140625 9.30078125 C-11.57041755 6.53833277 -11.57041755 6.53833277 0 0 Z " fill="#7D364F" transform="translate(285,274)"/>
<path d="M0 0 C2.40545878 2.13818558 2.49190946 4.42461028 2.72265625 7.53125 C2.67715801 10.07915136 2.29690942 11.50739786 0.6875 13.5 C-1.87515486 15.42199114 -3.14448949 15.51028636 -6.375 15.3125 C-10.81127351 14.08544563 -10.81127351 14.08544563 -12.3125 11.5 C-13.07162409 4.66788321 -13.07162409 4.66788321 -10.6875 1 C-6.99699605 -1.3308446 -4.13933323 -0.89499097 0 0 Z " fill="#1A2A41" transform="translate(254.3125,164.5)"/>
<path d="M0 0 C2.0078125 0.23046875 2.0078125 0.23046875 5.0078125 2.23046875 C5.95844645 5.87456554 6.24693795 8.65077301 5.0078125 12.23046875 C4.3478125 12.23046875 3.6878125 12.23046875 3.0078125 12.23046875 C3.0078125 12.89046875 3.0078125 13.55046875 3.0078125 14.23046875 C0.3828125 15.48046875 0.3828125 15.48046875 -2.9921875 16.23046875 C-6.3046875 14.73046875 -6.3046875 14.73046875 -8.9921875 12.23046875 C-10.0546875 9.29296875 -10.0546875 9.29296875 -9.9921875 6.23046875 C-7.25625388 0.63424089 -6.18831811 0.12559317 0 0 Z " fill="#222E3E" transform="translate(220.9921875,174.76953125)"/>
<path d="M0 0 C3.9375 0.5 3.9375 0.5 5.875 1.625 C7.40599826 4.32676164 7.8132742 6.39435505 7.9375 9.5 C7 12.3125 7 12.3125 4.9375 14.5 C2.20141801 15.56961305 -0.14768517 15.88561753 -3.0625 15.5 C-6.23891448 13.25003974 -7.76337676 11.82943663 -8.625 8 C-7.482447 2.92198666 -5.26446714 0.20359818 0 0 Z " fill="#16253C" transform="translate(280.0625,174.5)"/>
<path d="M0 0 C0.70125 0.495 1.4025 0.99 2.125 1.5 C2.125 2.16 2.125 2.82 2.125 3.5 C2.785 3.5 3.445 3.5 4.125 3.5 C8.39443557 10.30441294 9.46447795 16.52137049 8.125 24.5 C6.51510739 27.87798276 4.57396736 30.67931438 2.125 33.5 C1.795 32.51 1.465 31.52 1.125 30.5 C1.785 30.5 2.445 30.5 3.125 30.5 C2.774375 29.943125 2.42375 29.38625 2.0625 28.8125 C0.90654007 25.96113217 1.31532562 24.41482778 2.125 21.5 C3.115 21.17 4.105 20.84 5.125 20.5 C5.49867266 16.14048566 4.43124889 14.13677709 2.125 10.5 C0.125 5.13157895 0.125 5.13157895 0.125 2.5 C-0.4525 2.355625 -1.03 2.21125 -1.625 2.0625 C-2.970552 1.726112 -4.3116706 1.36957847 -5.640625 0.97265625 C-8.42466883 0.3837239 -11.03045651 0.36788864 -13.875 0.375 C-14.90625 0.37242187 -15.9375 0.36984375 -17 0.3671875 C-19.80237214 0.3881057 -19.80237214 0.3881057 -22.125 1.1328125 C-22.99125 1.31457031 -22.99125 1.31457031 -23.875 1.5 C-24.535 0.84 -25.195 0.18 -25.875 -0.5 C-16.59320227 -4.55023901 -9.1346544 -4.76590664 0 0 Z " fill="#A63956" transform="translate(262.875,199.5)"/>
<path d="M0 0 C1.9375 1 1.9375 1 3 3 C3.23595284 5.71882023 3.13477523 8.25957022 3 11 C1.02 11.99 1.02 11.99 -1 13 C-1 13.66 -1 14.32 -1 15 C-4.19384754 15.21776233 -6.40422845 15.28983481 -9.3125 13.875 C-11.66290584 11.26343795 -11.93021482 9.48925922 -12 6 C-9.16345089 -0.07831952 -6.52867609 -0.45815271 0 0 Z " fill="#535E6E" transform="translate(253,254)"/>
<path d="M0 0 C2.4375 1.5625 2.4375 1.5625 4 4 C4.42145216 7.43182475 4.6712306 9.81547541 2.9375 12.875 C-0.13408409 14.65850044 -2.45638757 15 -6 15 C-9 13.0625 -9 13.0625 -11 10 C-11.27955331 6.94820968 -10.80183226 5.05698548 -10 2 C-6.2794164 -0.48038907 -4.40203429 -0.46337203 0 0 Z " fill="#283345" transform="translate(282,244)"/>
<path d="M0 0 C1.9375 0.3359375 1.9375 0.3359375 4.9375 2.3359375 C5.88813395 5.98003429 6.17662545 8.75624176 4.9375 12.3359375 C4.2775 12.3359375 3.6175 12.3359375 2.9375 12.3359375 C2.9375 12.9959375 2.9375 13.6559375 2.9375 14.3359375 C-3.41477273 15.55752841 -3.41477273 15.55752841 -6.4375 14.5234375 C-8.0625 13.3359375 -8.0625 13.3359375 -9.0625 11.3359375 C-9.32202656 7.83232895 -9.40542714 5.1718224 -8.0625 1.8984375 C-5.35838938 -0.21414892 -3.35088725 -0.06346377 0 0 Z " fill="#263349" transform="translate(221.0625,243.6640625)"/>
<path d="M0 0 C1.91015625 0.37890625 1.91015625 0.37890625 4.47265625 1.94140625 C5.91015625 4.37890625 5.91015625 4.37890625 5.97265625 7.94140625 C4.91015625 11.37890625 4.91015625 11.37890625 2.78515625 13.37890625 C-0.97484603 14.68673313 -3.27058152 14.43981242 -7.08984375 13.37890625 C-9.43556446 11.26019077 -9.98528347 9.97639355 -10.52734375 6.87890625 C-10.08984375 4.37890625 -10.08984375 4.37890625 -8.58984375 2.06640625 C-5.54282237 0.00966682 -3.61503312 -0.20946921 0 0 Z " fill="#16283B" transform="translate(248.08984375,349.62109375)"/>
<path d="M0 0 C2.36604164 2.66179684 3.04466185 4.06210117 2.875 7.625 C1.89969741 10.27224989 1.32039251 11.39972931 -1 13 C-3.875 14 -3.875 14 -7 14 C-9.9375 12 -9.9375 12 -12 9 C-12.06625411 5.1572617 -11.81899419 3.00799284 -9.375 0 C-5.85025855 -1.48410166 -3.63189024 -1.05654989 0 0 Z " fill="#2F3849" transform="translate(298,211)"/>
<path d="M0 0 C3.4375 1 3.4375 1 5.4375 2.625 C6.87866288 6.04776185 6.29307966 8.44605372 5.4375 12 C3.4375 14 3.4375 14 1.34375 14.265625 C0.5496875 14.26046875 -0.244375 14.2553125 -1.0625 14.25 C-1.8565625 14.25515625 -2.650625 14.2603125 -3.46875 14.265625 C-5.5625 14 -5.5625 14 -7.5625 12 C-8.23065145 5.09576837 -8.23065145 5.09576837 -6 1.4375 C-3.5625 0 -3.5625 0 0 0 Z " fill="#273446" transform="translate(208.5625,210)"/>
<path d="M0 0 C-1 3 -1 3 -2.8125 4.0625 C-3.8953125 4.5265625 -3.8953125 4.5265625 -5 5 C-5.7425 5.37125 -6.485 5.7425 -7.25 6.125 C-7.8275 6.41375 -8.405 6.7025 -9 7 C-8.01 8.485 -8.01 8.485 -7 10 C-7 10.99 -7 11.98 -7 13 C-11.1217079 14.99840383 -14.4402752 15.33775739 -19 15 C-19.99 14.34 -20.98 13.68 -22 13 C-22.1875 10.375 -22.1875 10.375 -22 8 C-21.21496094 7.67386719 -20.42992187 7.34773438 -19.62109375 7.01171875 C-18.57050781 6.57472656 -17.51992188 6.13773437 -16.4375 5.6875 C-15.344375 5.23375 -14.25125 4.78 -13.125 4.3125 C-10.71370617 3.29975659 -8.32359743 2.25712988 -5.9375 1.1875 C-3 0 -3 0 0 0 Z " fill="#571E39" transform="translate(286,341)"/>
<path d="M0 0 C4.0366596 0.60182925 7.06292431 1.90261098 10.625 3.875 C11.56601562 4.38804688 12.50703125 4.90109375 13.4765625 5.4296875 C15.6918742 6.80825608 17.35913515 7.98470962 19 10 C19 10.66 19 11.32 19 12 C13.49872236 12.36675184 9.13677998 11.28167916 3.8671875 9.734375 C-0.38222672 8.64596918 -4.63178383 8.27479017 -9 8 C-9 7.67 -9 7.34 -9 7 C-8.37351562 6.97421875 -7.74703125 6.9484375 -7.1015625 6.921875 C-6.28429687 6.86515625 -5.46703125 6.8084375 -4.625 6.75 C-3.81289063 6.70359375 -3.00078125 6.6571875 -2.1640625 6.609375 C0.18838927 6.2077908 0.18838927 6.2077908 1.2890625 3.953125 C1.52367187 3.30859375 1.75828125 2.6640625 2 2 C1.34 2 0.68 2 0 2 C0 1.34 0 0.68 0 0 Z " fill="#415464" transform="translate(306,112)"/>
<path d="M0 0 C2.02045442 0.60183749 4.02111039 1.27306096 6 2 C6.33 2.66 6.66 3.32 7 4 C6.01 4.66 5.02 5.32 4 6 C3.53722656 6.48210937 3.07445312 6.96421875 2.59765625 7.4609375 C-3.30501439 13.14712878 -11.07431305 14.8145052 -19 15 C-18.34 14.67 -17.68 14.34 -17 14 C-17 13.34 -17 12.68 -17 12 C-13.50638213 8.8945619 -9.82409302 7.33165328 -5.25 6.5 C-4.5075 6.335 -3.765 6.17 -3 6 C-2.67 5.34 -2.34 4.68 -2 4 C-1.01 4 -0.02 4 1 4 C0.67 2.68 0.34 1.36 0 0 Z " fill="#54243A" transform="translate(307,337)"/>
<path d="M0 0 C0.33 0 0.66 0 1 0 C1 2.97 1 5.94 1 9 C2.3921875 9.1546875 2.3921875 9.1546875 3.8125 9.3125 C7.03254358 10.0070192 8.02579865 10.47740939 10 13 C8.02 13 6.04 13 4 13 C4.061875 14.3303125 4.061875 14.3303125 4.125 15.6875 C3.99929606 19.01865447 3.58280351 21.08430932 2 24 C1.01 24.33 0.02 24.66 -1 25 C-0.773125 25.845625 -0.54625 26.69125 -0.3125 27.5625 C0.09143364 32.00577003 -1.02697599 34.05395199 -3 38 C-3.66 38 -4.32 38 -5 38 C-5.33 39.32 -5.66 40.64 -6 42 C-6.33 41.34 -6.66 40.68 -7 40 C-6.17697718 37.59459077 -5.13527435 35.31966234 -4.10546875 32.99609375 C-1.31062537 25.42137689 -0.64298844 17.96040381 -0.375 9.9375 C-0.33632813 8.97650391 -0.29765625 8.01550781 -0.2578125 7.02539062 C-0.16461374 4.68377186 -0.07880815 2.34213963 0 0 Z " fill="#761836" transform="translate(315,206)"/>
<path d="M0 0 C0.66 0.33 1.32 0.66 2 1 C1.67 1.66 1.34 2.32 1 3 C1.99 3.33 2.98 3.66 4 4 C3.01 4.495 3.01 4.495 2 5 C2 5.66 2 6.32 2 7 C1.01 7.33 0.02 7.66 -1 8 C1.97 8.33 4.94 8.66 8 9 C8 9.33 8 9.66 8 10 C1.07 10 -5.86 10 -13 10 C-11 6 -11 6 -8.875 5.25 C-8.25625 5.1675 -7.6375 5.085 -7 5 C-7 4.34 -7 3.68 -7 3 C-4.69631264 1.93347808 -2.35981813 0.93578995 0 0 Z " fill="#D32D48" transform="translate(249,138)"/>
<path d="M0 0 C2.97 0.495 2.97 0.495 6 1 C5.67 2.32 5.34 3.64 5 5 C5.99 5.66 6.98 6.32 8 7 C8.33 6.34 8.66 5.68 9 5 C9.33 5.99 9.66 6.98 10 8 C15.76081841 9.2982126 21.08739655 10.25706972 27 10 C27 9.34 27 8.68 27 8 C28.32 8.66 29.64 9.32 31 10 C25.3504885 13.766341 19.63617735 13.69183742 13 13 C9.52613791 11.65921112 7.08571357 10.05714238 4 8 C4 7.34 4 6.68 4 6 C3.34 6 2.68 6 2 6 C0 3 0 3 0 0 Z " fill="#8E324F" transform="translate(231,226)"/>
<path d="M0 0 C0.66 0.99 1.32 1.98 2 3 C3.96361864 3.57748803 3.96361864 3.57748803 6.125 3.6875 C7.40375 3.790625 8.6825 3.89375 10 4 C10 4.33 10 4.66 10 5 C6.68751813 5.02888146 3.37506833 5.04675799 0.0625 5.0625 C-0.88302734 5.07087891 -1.82855469 5.07925781 -2.80273438 5.08789062 C-4.15141602 5.09272461 -4.15141602 5.09272461 -5.52734375 5.09765625 C-6.77632446 5.10551147 -6.77632446 5.10551147 -8.05053711 5.11352539 C-10 5 -10 5 -11 4 C-12.51928038 3.92820036 -14.04167482 3.91607993 -15.5625 3.9375 C-16.80193359 3.95103516 -16.80193359 3.95103516 -18.06640625 3.96484375 C-19.02353516 3.98224609 -19.02353516 3.98224609 -20 4 C-20 3.34 -20 2.68 -20 2 C-13.56367372 0.46623714 -6.6170031 -1.18342555 0 0 Z " fill="#6C0F2F" transform="translate(278,283)"/>
<path d="M0 0 C1.65 0 3.3 0 5 0 C5.33 0.99 5.66 1.98 6 3 C8.01508358 3.73323796 8.01508358 3.73323796 10 4 C9.625 6.4375 9.625 6.4375 9 9 C5.95699684 10.52150158 3.345915 10.23899393 0 10 C-2 7 -2 7 -3 5 C-2.34 4.01 -1.68 3.02 -1 2 C-0.67 1.34 -0.34 0.68 0 0 Z " fill="#0B213C" transform="translate(245,256)"/>
<path d="M0 0 C0 0.33 0 0.66 0 1 C-1.65 1 -3.3 1 -5 1 C-4.79375 2.051875 -4.5875 3.10375 -4.375 4.1875 C-4.00036896 7.99624887 -4.28369933 9.66835752 -6 13 C-4.68 13.33 -3.36 13.66 -2 14 C-8.43014706 13.51470588 -8.43014706 13.51470588 -10.9375 11.25 C-12.23370853 8.50508782 -12.52487013 6.99925788 -12 4 C-8.79572336 -0.93992649 -5.38302474 -0.35886832 0 0 Z " fill="#3F4957" transform="translate(250,350)"/>
<path d="M0 0 C3 1 3 1 4 2 C4.66 2 5.32 2 6 2 C6.33 3.65 6.66 5.3 7 7 C7.66 7 8.32 7 9 7 C9 7.66 9 8.32 9 9 C9.598125 9.144375 10.19625 9.28875 10.8125 9.4375 C12.56150404 9.8872439 14.28677023 10.42892341 16 11 C16.75241109 14.65456815 17.40049704 18.31733897 18 22 C15.04470947 19.13426373 12.2922467 16.19937479 9.625 13.0625 C6.36604489 9.28784211 2.86036214 6.15131603 -1 3 C-0.67 2.01 -0.34 1.02 0 0 Z " fill="#D5415D" transform="translate(286,155)"/>
<path d="M0 0 C-1.29299694 2.88437779 -2.65941363 4.87219421 -5 7 C-5.33 6.67 -5.66 6.34 -6 6 C-6.639375 7.11375 -7.27875 8.2275 -7.9375 9.375 C-8.29714844 10.00148437 -8.65679687 10.62796875 -9.02734375 11.2734375 C-9.71719051 12.49798475 -10.37144538 13.74289077 -11 15 C-14.64653273 16.11421833 -17.33291043 15.94296589 -21 15 C-17.07168569 10.82616605 -12.83520017 7.10605574 -8 4 C-7.34 4 -6.68 4 -6 4 C-6 3.34 -6 2.68 -6 2 C-2.25 0 -2.25 0 0 0 Z " fill="#495969" transform="translate(177,119)"/>
<path d="M0 0 C1.41623216 -0.05447047 2.83308191 -0.09300508 4.25 -0.125 C5.03890625 -0.14820313 5.8278125 -0.17140625 6.640625 -0.1953125 C9.25050147 0.02073688 10.79512897 0.60744988 13 2 C14.25 4.125 14.25 4.125 15 6 C14 7 14 7 10.375 7.25 C5.95651081 7.21809755 2.9242849 5.96214245 -1 4 C-0.67 2.68 -0.34 1.36 0 0 Z " fill="#848D94" transform="translate(211,350)"/>
<path d="M0 0 C1.98 0.99 3.96 1.98 6 3 C6 3.66 6 4.32 6 5 C6.66 5 7.32 5 8 5 C8 5.66 8 6.32 8 7 C8.57621094 7.25136719 9.15242188 7.50273437 9.74609375 7.76171875 C15.1403654 10.72529607 20.5143313 16.36581761 23 22 C22.67 22.66 22.34 23.32 22 24 C15.2936345 18.75154004 15.2936345 18.75154004 14 15 C14 14.34 14 13.68 14 13 C12.948125 12.835 11.89625 12.67 10.8125 12.5 C7.26093147 11.52942965 6.05610256 10.06489172 4.1875 6.9375 C3.80980469 6.22464844 3.43210937 5.51179687 3.04296875 4.77734375 C2.11858452 2.83217654 2.11858452 2.83217654 0 2 C0 1.34 0 0.68 0 0 Z " fill="#CC4A66" transform="translate(339,140)"/>
<path d="M0 0 C0.70125 0.495 1.4025 0.99 2.125 1.5 C2.125 2.16 2.125 2.82 2.125 3.5 C2.785 3.5 3.445 3.5 4.125 3.5 C3.795 4.16 3.465 4.82 3.125 5.5 C2.135 5.17 1.145 4.84 0.125 4.5 C0.125 3.84 0.125 3.18 0.125 2.5 C-0.4525 2.355625 -1.03 2.21125 -1.625 2.0625 C-2.970552 1.726112 -4.3116706 1.36957847 -5.640625 0.97265625 C-8.42466883 0.3837239 -11.03045651 0.36788864 -13.875 0.375 C-14.90625 0.37242187 -15.9375 0.36984375 -17 0.3671875 C-19.80237214 0.3881057 -19.80237214 0.3881057 -22.125 1.1328125 C-22.99125 1.31457031 -22.99125 1.31457031 -23.875 1.5 C-24.535 0.84 -25.195 0.18 -25.875 -0.5 C-16.59320227 -4.55023901 -9.1346544 -4.76590664 0 0 Z " fill="#B94463" transform="translate(262.875,199.5)"/>
<path d="M0 0 C1.67542976 0.28604898 3.34385343 0.61781233 5 1 C5 1.99 5 2.98 5 4 C5.66 4 6.32 4 7 4 C6.67 5.65 6.34 7.3 6 9 C-2.91 9 -11.82 9 -21 9 C-21 8.67 -21 8.34 -21 8 C-14.73 8 -8.46 8 -2 8 C-2 7.34 -2 6.68 -2 6 C-1.34 6 -0.68 6 0 6 C-0.185625 5.195625 -0.37125 4.39125 -0.5625 3.5625 C-0.706875 2.716875 -0.85125 1.87125 -1 1 C-0.67 0.67 -0.34 0.34 0 0 Z " fill="#294053" transform="translate(301,110)"/>
<path d="M0 0 C2 1.625 2 1.625 3 4 C2.6875 7.75 2.6875 7.75 2 11 C1.67 10.505 1.34 10.01 1 9.5 C-2.17572747 7.11820439 -5.10246066 7.80831774 -9 8 C-8.67 7.01 -8.34 6.02 -8 5 C-7.01 5.33 -6.02 5.66 -5 6 C-4.67 4.35 -4.34 2.7 -4 1 C-4.66 0.67 -5.32 0.34 -6 0 C-6.33 0.99 -6.66 1.98 -7 3 C-7.99 3 -8.98 3 -10 3 C-9.67 2.01 -9.34 1.02 -9 0 C-5.8168485 -1.59157575 -3.38676935 -0.77242108 0 0 Z " fill="#404D5D" transform="translate(212,211)"/>
<path d="M0 0 C0.66 0.66 1.32 1.32 2 2 C1.67582137 5.80909895 1.14418558 7.78372163 -1 11 C-2.9453125 11.51171875 -2.9453125 11.51171875 -5.125 11.6875 C-7.043125 11.8421875 -7.043125 11.8421875 -9 12 C-9 11.34 -9 10.68 -9 10 C-8.34 9.67 -7.68 9.34 -7 9 C-7 8.34 -7 7.68 -7 7 C-7.66 6.67 -8.32 6.34 -9 6 C-8.67 5.34 -8.34 4.68 -8 4 C-7.01 4.33 -6.02 4.66 -5 5 C-4.67 4.34 -4.34 3.68 -4 3 C-3.34 3 -2.68 3 -2 3 C-1.67 2.34 -1.34 1.68 -1 1 C-0.67 0.67 -0.34 0.34 0 0 Z " fill="#2E3F52" transform="translate(286,178)"/>
<path d="M0 0 C0.33 0 0.66 0 1 0 C1.05394705 2.60444348 1.09364469 5.20776998 1.125 7.8125 C1.14175781 8.55048828 1.15851563 9.28847656 1.17578125 10.04882812 C1.21074628 13.91246426 1.19397555 15.70903668 -1 19 C-1.125 12.375 -1.125 12.375 0 9 C-0.53625 8.9175 -1.0725 8.835 -1.625 8.75 C-4.87340691 7.72418729 -7.28751859 6.03436106 -10 4 C-10 3.34 -10 2.68 -10 2 C-9.04287109 1.90912109 -9.04287109 1.90912109 -8.06640625 1.81640625 C-6.82697266 1.69072266 -6.82697266 1.69072266 -5.5625 1.5625 C-4.73878906 1.48128906 -3.91507812 1.40007812 -3.06640625 1.31640625 C-1.01337975 1.21069185 -1.01337975 1.21069185 0 0 Z " fill="#882943" transform="translate(380,235)"/>
<path d="M0 0 C0.99 0 1.98 0 3 0 C5.42857143 6.28571429 5.42857143 6.28571429 4 10 C4.66 10.33 5.32 10.66 6 11 C7.35308313 12.31328657 8.68870078 13.64499081 10 15 C9.67 15.99 9.34 16.98 9 18 C9.185625 18.639375 9.37125 19.27875 9.5625 19.9375 C10.13063654 22.61585797 9.28574081 23.65828955 8 26 C7.85304688 25.34515625 7.70609375 24.6903125 7.5546875 24.015625 C5.90186744 17.29035718 3.45841108 11.59141053 0.109375 5.53125 C-1 3 -1 3 0 0 Z " fill="#CD2D4B" transform="translate(305,176)"/>
<path d="M0 0 C0.66 0 1.32 0 2 0 C0.4785114 4.39081764 -1.85939639 8.02875969 -4.5 11.8125 C-5.10521484 12.7087207 -5.10521484 12.7087207 -5.72265625 13.62304688 C-6.76039782 15.12143611 -7.87475797 16.56615614 -9 18 C-9.66 18 -10.32 18 -11 18 C-11.33 18.66 -11.66 19.32 -12 20 C-12.33 18.68 -12.66 17.36 -13 16 C-12.01 16 -11.02 16 -10 16 C-10.33 15.01 -10.66 14.02 -11 13 C-10.34 13 -9.68 13 -9 13 C-8.67 11.02 -8.34 9.04 -8 7 C-7.34 7 -6.68 7 -6 7 C-5.67 6.01 -5.34 5.02 -5 4 C-4.01 4 -3.02 4 -2 4 C-1.34 2.68 -0.68 1.36 0 0 Z " fill="#623F4F" transform="translate(362,292)"/>
<path d="M0 0 C-0.50603992 2.16874252 -0.99983813 3.99967627 -2 6 C-1.01 6.33 -0.02 6.66 1 7 C1 7.66 1 8.32 1 9 C-5.625 9.25 -5.625 9.25 -9 7 C-9.1875 4.375 -9.1875 4.375 -9 2 C-5.86501708 0.14223235 -3.62528568 -0.20140476 0 0 Z " fill="#4F1731" transform="translate(273,347)"/>
<path d="M0 0 C2.97 0.33 5.94 0.66 9 1 C9 1.66 9 2.32 9 3 C10.3921875 3.185625 10.3921875 3.185625 11.8125 3.375 C15 4 15 4 18 6 C20.38677076 6.29452584 22.78626094 6.4928217 25.1875 6.625 C27.09595703 6.73714844 27.09595703 6.73714844 29.04296875 6.8515625 C30.01878906 6.90054688 30.99460937 6.94953125 32 7 C31.67 7.66 31.34 8.32 31 9 C28.671875 9.484375 28.671875 9.484375 25.75 9.75 C24.31914062 9.89695313 24.31914062 9.89695313 22.859375 10.046875 C19.71885839 9.99539112 17.75151916 9.50260266 15 8 C14.67 7.01 14.34 6.02 14 5 C11.00728183 4.03916553 11.00728183 4.03916553 7.5 3.4375 C5.32094287 3.01826836 3.149323 2.55177512 1 2 C0.67 1.34 0.34 0.68 0 0 Z " fill="#990B2A" transform="translate(348,228)"/>
<path d="M0 0 C3.45534778 1.15178259 3.61293694 1.57158683 5.2265625 4.640625 C5.814375 5.75244141 5.814375 5.75244141 6.4140625 6.88671875 C7.01347656 8.05654297 7.01347656 8.05654297 7.625 9.25 C8.03234375 10.01441406 8.4396875 10.77882812 8.859375 11.56640625 C10.82892268 15.34245958 12.50225021 18.70905352 13 23 C11.68 22.34 10.36 21.68 9 21 C9 19.68 9 18.36 9 17 C8.34 17 7.68 17 7 17 C6.731875 16.071875 6.46375 15.14375 6.1875 14.1875 C5.03110437 11.08349067 4.28104551 10.18600194 2 8 C0.60359014 5.06018976 0 3.27763744 0 0 Z " fill="#C14C66" transform="translate(362,165)"/>
<path d="M0 0 C3.98671063 1.36687222 6.88494633 3.15195093 10 6 C10 6.66 10 7.32 10 8 C4.80790596 8.21192221 0.873261 7.5912689 -4 6 C-3.34 5.67 -2.68 5.34 -2 5 C-1.27840576 3.35636866 -0.60648579 1.68949614 0 0 Z " fill="#545F6E" transform="translate(315,116)"/>
<path d="M0 0 C1.43023645 4.64826845 1.53155691 8.52345302 -0.125 13.125 C-2.30764478 16.47172199 -4.56743155 18.01673823 -8 20 C-8.66 19.67 -9.32 19.34 -10 19 C-9.44570313 18.13117188 -8.89140625 17.26234375 -8.3203125 16.3671875 C-7.58821059 15.20333319 -6.85645831 14.0392589 -6.125 12.875 C-5.57779297 12.02035156 -5.57779297 12.02035156 -5.01953125 11.1484375 C-2.7613034 7.53527295 -1.1813321 4.09113959 0 0 Z " fill="#6C3B51" transform="translate(337,286)"/>
<path d="M0 0 C0.93423645 3.01031744 1.04449911 3.86650268 0 7 C-0.66 7 -1.32 7 -2 7 C-2 7.99 -2 8.98 -2 10 C-2.61875 10.2475 -3.2375 10.495 -3.875 10.75 C-6.35068687 12.20628639 -6.95125002 13.37812506 -8 16 C-8.66 16 -9.32 16 -10 16 C-10.33 16.66 -10.66 17.32 -11 18 C-11.66 17.34 -12.32 16.68 -13 16 C-12.21654285 14.82780457 -11.42297164 13.66236332 -10.625 12.5 C-10.18414062 11.8503125 -9.74328125 11.200625 -9.2890625 10.53125 C-8.65097656 9.77328125 -8.65097656 9.77328125 -8 9 C-7.34 9 -6.68 9 -6 9 C-5.7525 8.2575 -5.505 7.515 -5.25 6.75 C-3.90852699 3.79875938 -2.39094474 2.15185026 0 0 Z " fill="#4A5866" transform="translate(149,140)"/>
<path d="M0 0 C0.99 0 1.98 0 3 0 C3.66 0.33 4.32 0.66 5 1 C5 1.66 5 2.32 5 3 C0.23562911 4.36534076 -3.99425349 3.71274115 -8.8125 3.0625 C-9.60076172 2.96259766 -10.38902344 2.86269531 -11.20117188 2.75976562 C-13.13503503 2.51363759 -15.06765656 2.25778782 -17 2 C-16.67 1.34 -16.34 0.68 -16 0 C-13.671875 -0.44921875 -13.671875 -0.44921875 -10.75 -0.6875 C-9.31914062 -0.81705078 -9.31914062 -0.81705078 -7.859375 -0.94921875 C-5.05443995 -0.99903317 -2.72639519 -0.60840698 0 0 Z " fill="#CA2644" transform="translate(264,145)"/>
<path d="M0 0 C0.66 0.33 1.32 0.66 2 1 C-0.21606353 5.5552417 -2.4345307 6.96010946 -7 9 C-7.66 9.66 -8.32 10.32 -9 11 C-10.33333333 11.33333333 -11.66666667 11.66666667 -13 12 C-13.66 12.66 -14.32 13.32 -15 14 C-15.99 13.34 -16.98 12.68 -18 12 C-16.27136297 10.89500435 -14.54206612 9.79104086 -12.8125 8.6875 C-11.84957031 8.07261719 -10.88664062 7.45773437 -9.89453125 6.82421875 C-8.93933594 6.22222656 -7.98414063 5.62023437 -7 5 C-6.09636719 4.42894531 -5.19273437 3.85789062 -4.26171875 3.26953125 C-2 2 -2 2 0 2 C0 1.34 0 0.68 0 0 Z " fill="#7C5062" transform="translate(304,328)"/>
<path d="M0 0 C2 2 2 2 2.125 5.125 C2.08375 6.07375 2.0425 7.0225 2 8 C0.68 7.34 -0.64 6.68 -2 6 C-3.32 7.32 -4.64 8.64 -6 10 C-6.66 8.68 -7.32 7.36 -8 6 C-4.6004415 1.26490066 -4.6004415 1.26490066 -1.875 0.0625 C-1.25625 0.041875 -0.6375 0.02125 0 0 Z " fill="#142737" transform="translate(320,286)"/>
<path d="M0 0 C0 6.28456712 -6.00776122 11.50207764 -10 16 C-10.33 15.01 -10.66 14.02 -11 13 C-11.66 12.67 -12.32 12.34 -13 12 C-12.01 12 -11.02 12 -10 12 C-9.67 11.01 -9.34 10.02 -9 9 C-8.01 9 -7.02 9 -6 9 C-5.67 7.35 -5.34 5.7 -5 4 C-4.01 4 -3.02 4 -2 4 C-2 3.01 -2 2.02 -2 1 C-1.34 0.67 -0.68 0.34 0 0 Z " fill="#8F5164" transform="translate(335,256)"/>
<path d="M0 0 C0 0.33 0 0.66 0 1 C-0.763125 1.061875 -1.52625 1.12375 -2.3125 1.1875 C-5.1927866 1.77866803 -5.1927866 1.77866803 -6.875 4.375 C-8.35813363 7.03287217 -8.35813363 7.03287217 -7 10 C-6.01 10.66 -5.02 11.32 -4 12 C-4 12.99 -4 13.98 -4 15 C-3.01 15.33 -2.02 15.66 -1 16 C-3.89659753 15.67815583 -6.31897331 15.38591512 -8.875 13.9375 C-10.71974572 10.76043793 -10.62964102 7.51608525 -10 4 C-7.25492723 -0.22318887 -4.85423095 -0.44129372 0 0 Z " fill="#69717B" transform="translate(252,164)"/>
<path d="M0 0 C0.99 0 1.98 0 3 0 C3.33 1.32 3.66 2.64 4 4 C3.34 4 2.68 4 2 4 C2 5.65 2 7.3 2 9 C0.02 9.99 0.02 9.99 -2 11 C-3.14947895 7.44706507 -3.0868937 6.20023331 -1.5625 2.6875 C-1.046875 1.800625 -0.53125 0.91375 0 0 Z " fill="#4F0F2A" transform="translate(291,339)"/>
<path d="M0 0 C0.99 0.33 1.98 0.66 3 1 C3.8125 3.0625 3.8125 3.0625 4 6 C2.58973707 8.54689275 0.86023965 10.76642506 -1 13 C-1.33 12.01 -1.66 11.02 -2 10 C-1.34 10 -0.68 10 0 10 C-0.350625 9.443125 -0.70125 8.88625 -1.0625 8.3125 C-2.22672585 5.44074289 -1.8706847 3.92866672 -1 1 C-0.67 0.67 -0.34 0.34 0 0 Z " fill="#9C3550" transform="translate(266,220)"/>
<path d="M0 0 C1 3 1 3 0.0625 5.1875 C-0.288125 5.785625 -0.63875 6.38375 -1 7 C-1.33 6.34 -1.66 5.68 -2 5 C-2.66 4.67 -3.32 4.34 -4 4 C-3.67 3.34 -3.34 2.68 -3 2 C-3.763125 2.37125 -4.52625 2.7425 -5.3125 3.125 C-6.199375 3.41375 -7.08625 3.7025 -8 4 C-8.99 3.34 -9.98 2.68 -11 2 C-6.89657963 -0.38570952 -4.61380251 -1.49270081 0 0 Z " fill="#576572" transform="translate(329,284)"/>
<path d="M0 0 C0.66 0.99 1.32 1.98 2 3 C0.68 3.33 -0.64 3.66 -2 4 C-3.8849413 11.00629124 -5.39700836 17.76410027 -6 25 C-6.33 25 -6.66 25 -7 25 C-7.618266 16.30992783 -8.05180928 9.66114931 -2.41015625 2.5390625 C-1.62182553 1.6786683 -0.82514953 0.82514953 0 0 Z " fill="#AB5269" transform="translate(236,200)"/>
<path d="M0 0 C0.33 0.66 0.66 1.32 1 2 C-0.65 2.66 -2.3 3.32 -4 4 C-4.33 3.01 -4.66 2.02 -5 1 C-6.32 1.33 -7.64 1.66 -9 2 C-9.33 1.34 -9.66 0.68 -10 0 C-11.98 0 -13.96 0 -16 0 C-10.30583726 -3.79610849 -5.55733276 -3.7048885 0 0 Z " fill="#D63F5A" transform="translate(281,132)"/>
<path d="M0 0 C-1.98 0.99 -1.98 0.99 -4 2 C-4 2.66 -4 3.32 -4 4 C-4.66 4 -5.32 4 -6 4 C-6.33 4.66 -6.66 5.32 -7 6 C-7 5.34 -7 4.68 -7 4 C-7.99 3.67 -8.98 3.34 -10 3 C-10 2.67 -10 2.34 -10 2 C-15.28 1.67 -20.56 1.34 -26 1 C-26 0.67 -26 0.34 -26 0 C-22.41713181 -0.19720979 -18.83369943 -0.38107522 -15.25 -0.5625 C-14.23421875 -0.61857422 -13.2184375 -0.67464844 -12.171875 -0.73242188 C-11.1921875 -0.78076172 -10.2125 -0.82910156 -9.203125 -0.87890625 C-8.30239258 -0.9260376 -7.40166016 -0.97316895 -6.47363281 -1.02172852 C-4.12542592 -1.00110175 -2.23793298 -0.67823071 0 0 Z " fill="#7B848B" transform="translate(293,298)"/>
<path d="M0 0 C0.33 0 0.66 0 1 0 C2.33257403 19.00455581 2.33257403 19.00455581 1 27 C0.67 27 0.34 27 0 27 C0 24.69 0 22.38 0 20 C-0.99 19.67 -1.98 19.34 -3 19 C-2.34 19 -1.68 19 -1 19 C-0.67 12.73 -0.34 6.46 0 0 Z " fill="#BD6178" transform="translate(381,215)"/>
<path d="M0 0 C0.66 1.32 1.32 2.64 2 4 C1.34 4 0.68 4 0 4 C0.226875 4.845625 0.45375 5.69125 0.6875 6.5625 C1.09143364 11.00577003 -0.02697599 13.05395199 -2 17 C-2.66 17 -3.32 17 -4 17 C-4.33 18.32 -4.66 19.64 -5 21 C-5.33 20.34 -5.66 19.68 -6 19 C-5.29296875 16.93359375 -5.29296875 16.93359375 -4.1875 14.4375 C-2.17636195 9.65669778 -0.98440838 5.08610994 0 0 Z " fill="#9A6779" transform="translate(314,227)"/>
<path d="M0 0 C2.64 0 5.28 0 8 0 C8 1.65 8 3.3 8 5 C5.69 5.33 3.38 5.66 1 6 C0.67 4.02 0.34 2.04 0 0 Z " fill="#1D2B3D" transform="translate(218,182)"/>
<path d="M0 0 C-0.639375 0.268125 -1.27875 0.53625 -1.9375 0.8125 C-4.33131686 1.88667752 -4.33131686 1.88667752 -5 5 C-8 7 -8 7 -11 7 C-11.33 7.66 -11.66 8.32 -12 9 C-11.67815583 6.10340247 -11.38591512 3.68102669 -9.9375 1.125 C-6.73943927 -0.73193849 -3.64481003 -0.17925295 0 0 Z " fill="#2F3842" transform="translate(223,175)"/>
<path d="M0 0 C3.125 0.6875 3.125 0.6875 6 2 C6.33 2.99 6.66 3.98 7 5 C1.51053913 6.12029814 -1.83430559 5.79217969 -7 4 C-6.1028125 3.566875 -6.1028125 3.566875 -5.1875 3.125 C-2.80672208 1.95257974 -2.80672208 1.95257974 0 0 Z " fill="#DB3B56" transform="translate(273,146)"/>
<path d="M0 0 C0.99 0.33 1.98 0.66 3 1 C2.49396008 3.16874252 2.00016187 4.99967627 1 7 C0.34 7 -0.32 7 -1 7 C-1 7.99 -1 8.98 -1 10 C-2.32 10 -3.64 10 -5 10 C-3.84414715 6.08788267 -2.64465038 3.1254959 0 0 Z " fill="#505E69" transform="translate(131,164)"/>
<path d="M0 0 C0 0.66 0 1.32 0 2 C-0.969375 2.12375 -1.93875 2.2475 -2.9375 2.375 C-3.948125 2.58125 -4.95875 2.7875 -6 3 C-6.33 3.66 -6.66 4.32 -7 5 C-9.86135289 7.77959995 -11.27533282 8.94530814 -15.3125 9.25 C-16.199375 9.1675 -17.08625 9.085 -18 9 C-16.35136874 5.70273748 -12.79189039 4.84209148 -9.5625 3.375 C-8.52125977 2.88773437 -8.52125977 2.88773437 -7.45898438 2.390625 C-2.27092634 0 -2.27092634 0 0 0 Z " fill="#677882" transform="translate(195,110)"/>
<path d="M0 0 C1.35304209 4.05912626 0.15216503 5.77149591 -1.4375 9.6875 C-1.91058594 10.86699219 -2.38367188 12.04648437 -2.87109375 13.26171875 C-3.24363281 14.16535156 -3.61617188 15.06898438 -4 16 C-4.66 15.67 -5.32 15.34 -6 15 C-6 13.68 -6 12.36 -6 11 C-5.34 11 -4.68 11 -4 11 C-3.67 8.03 -3.34 5.06 -3 2 C-2.01 2 -1.02 2 0 2 C0 1.34 0 0.68 0 0 Z " fill="#7F485E" transform="translate(376,264)"/>
<path d="M0 0 C-0.5 1.9375 -0.5 1.9375 -2 4 C-4.05529527 4.50511494 -6.0143748 4.68842485 -8.125 4.82421875 C-10.09031685 4.89441897 -10.09031685 4.89441897 -12 6 C-14.3329866 6.04022391 -16.66706666 6.04320247 -19 6 C-19 5.67 -19 5.34 -19 5 C-18.09636719 4.72285156 -17.19273437 4.44570313 -16.26171875 4.16015625 C-15.08222656 3.79792969 -13.90273438 3.43570312 -12.6875 3.0625 C-10.92986328 2.52302734 -10.92986328 2.52302734 -9.13671875 1.97265625 C-2.7751004 0 -2.7751004 0 0 0 Z " fill="#98697C" transform="translate(280,278)"/>
<path d="M0 0 C2.97 0.495 2.97 0.495 6 1 C6.33 1.99 6.66 2.98 7 4 C5 6 5 6 1.875 6.125 C0.451875 6.063125 0.451875 6.063125 -1 6 C-0.67 4.02 -0.34 2.04 0 0 Z " fill="#B30F35" transform="translate(257,201)"/>
<path d="M0 0 C0.86625 0.495 0.86625 0.495 1.75 1 C4.19883862 2.27075898 4.19883862 2.27075898 8 2 C10.25 3.5 10.25 3.5 12 5 C9.375 6.25 9.375 6.25 6 7 C2.625 5.3125 2.625 5.3125 0 3 C0 2.01 0 1.02 0 0 Z " fill="#474F5F" transform="translate(212,184)"/>
<path d="M0 0 C0.99 0 1.98 0 3 0 C3 0.99 3 1.98 3 3 C1.69855198 4.04115841 0.36161311 5.03886134 -1 6 C-1.66 6.99 -2.32 7.98 -3 9 C-2.01 9 -1.02 9 0 9 C0 10.65 0 12.3 0 14 C-2.43252005 11.9475612 -3.84973341 10.73254965 -4.5 7.5625 C-3.83318086 4.14505188 -2.44165095 2.44165095 0 0 Z " fill="#596471" transform="translate(276,175)"/>
<path d="M0 0 C2.125 0.9375 2.125 0.9375 4 2 C-3.28571429 6.57142857 -3.28571429 6.57142857 -8 6 C-7.6875 4.0625 -7.6875 4.0625 -7 2 C-6.01 1.67 -5.02 1.34 -4 1 C-3.67 1.99 -3.34 2.98 -3 4 C-2.67 3.01 -2.34 2.02 -2 1 C-1.34 0.67 -0.68 0.34 0 0 Z " fill="#364957" transform="translate(227,137)"/>
<path d="M0 0 C1.65 0.33 3.3 0.66 5 1 C5 2.98 5 4.96 5 7 C4.34 7 3.68 7 3 7 C3 7.66 3 8.32 3 9 C1.68 8.67 0.36 8.34 -1 8 C-0.835 7.236875 -0.67 6.47375 -0.5 5.6875 C0.09145396 2.96403764 0.09145396 2.96403764 0 0 Z " fill="#10273B" transform="translate(296,109)"/>
<path d="M0 0 C0.99 0 1.98 0 3 0 C3 0.66 3 1.32 3 2 C3.66 2.33 4.32 2.66 5 3 C3.90716423 4.03295436 2.80029421 5.05107835 1.6875 6.0625 C1.07261719 6.63097656 0.45773437 7.19945312 -0.17578125 7.78515625 C-0.77777344 8.18605469 -1.37976563 8.58695312 -2 9 C-2.99 8.67 -3.98 8.34 -5 8 C-4.34 7.34 -3.68 6.68 -3 6 C-3.33 5.34 -3.66 4.68 -4 4 C-2.68 4 -1.36 4 0 4 C0 2.68 0 1.36 0 0 Z " fill="#62344E" transform="translate(338,317)"/>
<path d="M0 0 C0 0.33 0 0.66 0 1 C-2.31 1 -4.62 1 -7 1 C-7.66 4.3 -8.32 7.6 -9 11 C-9.66 11 -10.32 11 -11 11 C-11.19966912 7.53906866 -11.32761013 4.7985497 -10 1.5625 C-6.81039012 -0.92938272 -3.96543085 -0.26002825 0 0 Z " fill="#5C6773" transform="translate(223,244)"/>
<path d="M0 0 C1.98 0.99 3.96 1.98 6 3 C6 3.66 6 4.32 6 5 C6.66 5 7.32 5 8 5 C8 5.66 8 6.32 8 7 C8.99 7.33 9.98 7.66 11 8 C10.34 8.66 9.68 9.32 9 10 C7.0625 10 7.0625 10 5 9 C3.9349985 7.03384339 2.93166826 5.03273074 2 3 C1.34 2.67 0.68 2.34 0 2 C0 1.34 0 0.68 0 0 Z " fill="#D46278" transform="translate(339,140)"/>
<path d="M0 0 C1.65 0.33 3.3 0.66 5 1 C2.13463296 5.07763771 -0.43041625 7.02677065 -5 9 C-5.33 8.01 -5.66 7.02 -6 6 C-3 4 -3 4 0 4 C0 2.68 0 1.36 0 0 Z " fill="#684556" transform="translate(329,325)"/>
<path d="M0 0 C0.66 0.33 1.32 0.66 2 1 C1.67 2.98 1.34 4.96 1 7 C-0.65 7.33 -2.3 7.66 -4 8 C-4.66 7.01 -5.32 6.02 -6 5 C-4.06745228 2.9754262 -2.36841312 1.57894208 0 0 Z " fill="#410A23" transform="translate(332,303)"/>
<path d="M0 0 C0 0.33 0 0.66 0 1 C-1.65 1.33 -3.3 1.66 -5 2 C-5.33 3.32 -5.66 4.64 -6 6 C-6.99 6 -7.98 6 -9 6 C-9.66 7.32 -10.32 8.64 -11 10 C-10.51171875 3.9453125 -10.51171875 3.9453125 -10 2 C-6.3558226 -0.4294516 -4.28758728 -0.16179575 0 0 Z " fill="#505763" transform="translate(282,244)"/>
<path d="M0 0 C0.66 0.33 1.32 0.66 2 1 C1.67 3.64 1.34 6.28 1 9 C2.32 9.33 3.64 9.66 5 10 C5 10.66 5 11.32 5 12 C5.99 12.33 6.98 12.66 8 13 C6 14 6 14 2.875 13.0625 C1.92625 12.711875 0.9775 12.36125 0 12 C-0.19401633 10.18818595 -0.38004375 8.37551468 -0.5625 6.5625 C-0.66691406 5.55316406 -0.77132813 4.54382813 -0.87890625 3.50390625 C-0.91886719 2.67761719 -0.95882813 1.85132813 -1 1 C-0.67 0.67 -0.34 0.34 0 0 Z " fill="#A21234" transform="translate(316,203)"/>
<path d="M0 0 C0.66 0.33 1.32 0.66 2 1 C1.67 1.99 1.34 2.98 1 4 C6.61 4 12.22 4 18 4 C18 4.33 18 4.66 18 5 C11.07 5 4.14 5 -3 5 C-1 1 -1 1 0 0 Z " fill="#D97C8D" transform="translate(239,143)"/>
<path d="M0 0 C0.66 0.33 1.32 0.66 2 1 C1.67 2.32 1.34 3.64 1 5 C1.99 5.33 2.98 5.66 4 6 C3 7 3 7 -0.5625 7.0625 C-1.696875 7.041875 -2.83125 7.02125 -4 7 C-3.43628586 3.73045798 -2.50037734 2.17424117 0 0 Z " fill="#D13F52" transform="translate(244,140)"/>
<path d="M0 0 C5.98551772 1.50170462 11.61255621 2.94226163 17 6 C16.01 6.66 15.02 7.32 14 8 C14 7.34 14 6.68 14 6 C12.68 6 11.36 6 10 6 C10 5.34 10 4.68 10 4 C9.0925 4.226875 8.185 4.45375 7.25 4.6875 C4 5 4 5 1.625 3.6875 C0 2 0 2 0 0 Z " fill="#C9576E" transform="translate(317,131)"/>
<path d="M0 0 C1.04449911 3.13349732 0.93423645 3.98968256 0 7 C-0.66 7 -1.32 7 -2 7 C-2.33 8.32 -2.66 9.64 -3 11 C-4.32 11 -5.64 11 -7 11 C-6 9 -5 7 -4 5 C-3.34 5 -2.68 5 -2 5 C-1.34 3.35 -0.68 1.7 0 0 Z " fill="#785969" transform="translate(326,306)"/>
<path d="M0 0 C0.66 0 1.32 0 2 0 C2.33 1.98 2.66 3.96 3 6 C1.68 6.99 0.36 7.98 -1 9 C-2 8 -2 8 -2.1875 5.0625 C-2 2 -2 2 0 0 Z " fill="#2B415A" transform="translate(324,286)"/>
<path d="M0 0 C0.60328125 0.40992188 1.2065625 0.81984375 1.828125 1.2421875 C2.62734375 1.78101563 3.4265625 2.31984375 4.25 2.875 C5.03890625 3.40867187 5.8278125 3.94234375 6.640625 4.4921875 C8.71555692 5.81822015 10.77614972 6.94928175 13 8 C13 8.33 13 8.66 13 9 C11.35 9 9.7 9 8 9 C8 8.34 8 7.68 8 7 C5.03 6.505 5.03 6.505 2 6 C2 5.01 2 4.02 2 3 C1.34 3 0.68 3 0 3 C0 2.01 0 1.02 0 0 Z " fill="#575E66" transform="translate(217,278)"/>
<path d="M0 0 C1.9375 0.5625 1.9375 0.5625 4 2 C4.875 5.5 4.875 5.5 5 9 C4.34 9.66 3.68 10.32 3 11 C2.49632243 9.54293274 1.99717444 8.08429904 1.5 6.625 C1.2215625 5.81289062 0.943125 5.00078125 0.65625 4.1640625 C0 2 0 2 0 0 Z " fill="#505E6C" transform="translate(210,211)"/>
<path d="M0 0 C0.7425 0.61875 1.485 1.2375 2.25 1.875 C4.80438808 4.00623933 4.80438808 4.00623933 7.25 5.0625 C9 6 9 6 10 9 C4.73829306 7.58832253 1.27828642 5.25149768 -3 2 C-2.01 1.34 -1.02 0.68 0 0 Z " fill="#434D56" transform="translate(165,320)"/>
<path d="M0 0 C0.99 0.33 1.98 0.66 3 1 C2.67 1.99 2.34 2.98 2 4 C1.34 4 0.68 4 0 4 C-0.33 4.99 -0.66 5.98 -1 7 C-4.21284338 8.88579937 -6.24633583 10 -10 10 C-9.44570313 9.52949219 -8.89140625 9.05898438 -8.3203125 8.57421875 C-7.59585937 7.95160156 -6.87140625 7.32898438 -6.125 6.6875 C-5.40570313 6.07261719 -4.68640625 5.45773437 -3.9453125 4.82421875 C-1.80820669 2.9587676 -1.80820669 2.9587676 0 0 Z " fill="#905D6E" transform="translate(299,261)"/>
<path d="M0 0 C0.33 1.65 0.66 3.3 1 5 C-3.75 3.125 -3.75 3.125 -6 2 C-6 1.34 -6 0.68 -6 0 C-3.50907189 -1.24546405 -2.58919267 -0.7767578 0 0 Z M-8 2 C-7.34 2.33 -6.68 2.66 -6 3 C-6.33 4.32 -6.66 5.64 -7 7 C-7.99 6.67 -8.98 6.34 -10 6 C-9.34 4.68 -8.68 3.36 -8 2 Z " fill="#141F2D" transform="translate(298,212)"/>
<path d="M0 0 C2.475 0.99 2.475 0.99 5 2 C4.814375 2.5775 4.62875 3.155 4.4375 3.75 C3.83047719 5.97214494 3.83047719 5.97214494 4.5625 8 C5.13872199 10.63415768 4.26378299 11.69347591 3 14 C2.49528803 12.23050388 1.99639315 10.45934777 1.5 8.6875 C1.2215625 7.70136719 0.943125 6.71523437 0.65625 5.69921875 C0 3 0 3 0 0 Z " fill="#A63A57" transform="translate(310,188)"/>
<path d="M0 0 C0 0.66 0 1.32 0 2 C-4.27720165 5.44935617 -8.71876659 5.6663273 -14 6 C-10.292996 2.7563715 -5.02493834 0 0 0 Z " fill="#CC5169" transform="translate(265,132)"/>
<path d="M0 0 C2 2 2 2 2 5 C1.401875 5.12375 0.80375 5.2475 0.1875 5.375 C-2.26231348 5.95475985 -2.26231348 5.95475985 -5 8 C-5.33 6.68 -5.66 5.36 -6 4 C-5.34 4 -4.68 4 -4 4 C-3.67 3.01 -3.34 2.02 -3 1 C-2.01 0.67 -1.02 0.34 0 0 Z " fill="#4C0E28" transform="translate(309,327)"/>
<path d="M0 0 C-0.33 1.65 -0.66 3.3 -1 5 C-1.598125 4.835 -2.19625 4.67 -2.8125 4.5 C-5.11344336 3.8885876 -5.11344336 3.8885876 -8 4 C-8.66 3.34 -9.32 2.68 -10 2 C-6.38026598 0.68373308 -3.90432869 0 0 0 Z " fill="#152630" transform="translate(263,298)"/>
<path d="M0 0 C0.33 0 0.66 0 1 0 C1.22577402 5.4185766 0.46670113 9.77487721 -1 15 C-1.33 15 -1.66 15 -2 15 C-2.36279456 13.71073008 -2.71496698 12.41846728 -3.0625 11.125 C-3.25972656 10.40570313 -3.45695313 9.68640625 -3.66015625 8.9453125 C-4 7 -4 7 -3 5 C-2.34 5 -1.68 5 -1 5 C-0.67 3.35 -0.34 1.7 0 0 Z " fill="#3C5063" transform="translate(190,184)"/>
<path d="M0 0 C0.66 0.99 1.32 1.98 2 3 C1.01 4.485 1.01 4.485 0 6 C0 6.99 0 7.98 0 9 C-0.99 9 -1.98 9 -3 9 C-3.66 7.68 -4.32 6.36 -5 5 C-4.01 4.67 -3.02 4.34 -2 4 C-0.79117904 1.99983534 -0.79117904 1.99983534 0 0 Z " fill="#4A5B68" transform="translate(155,134)"/>
<path d="M0 0 C5.63281599 -0.2396943 10.54538831 0.61470179 16 2 C16 2.33 16 2.66 16 3 C11.71 3 7.42 3 3 3 C3 2.34 3 1.68 3 1 C2.01 0.67 1.02 0.34 0 0 Z " fill="#CD6277" transform="translate(301,128)"/>
<path d="M0 0 C-1.36983503 3.16115776 -1.9890638 3.9927092 -5 6 C-5.66 5.34 -6.32 4.68 -7 4 C-7 3.01 -7 2.02 -7 1 C-4.53721199 -0.231394 -2.7204945 -0.07159196 0 0 Z M-9 4 C-7 5 -7 5 -7 5 Z " fill="#394A5A" transform="translate(216,104)"/>
<path d="M0 0 C0.66 0.33 1.32 0.66 2 1 C2 1.99 2 2.98 2 4 C3.98 4 5.96 4 8 4 C8 4.66 8 5.32 8 6 C5.75 6.6875 5.75 6.6875 3 7 C0.6875 5.5625 0.6875 5.5625 -1 4 C-0.67 2.68 -0.34 1.36 0 0 Z " fill="#384259" transform="translate(243,262)"/>
<path d="M0 0 C-0.99 0.66 -1.98 1.32 -3 2 C-3.99 1.67 -4.98 1.34 -6 1 C-6 1.66 -6 2.32 -6 3 C-7.65 3.66 -9.3 4.32 -11 5 C-10.6875 3.125 -10.6875 3.125 -10 1 C-6.1496895 -1.56687367 -4.41430237 -0.83288724 0 0 Z " fill="#5E646C" transform="translate(298,211)"/>
<path d="M0 0 C1.32 1.65 2.64 3.3 4 5 C3.67 5.66 3.34 6.32 3 7 C2.01 7 1.02 7 0 7 C-1.68798827 8.43750191 -1.68798827 8.43750191 -3 10 C-2.39009109 6.44219804 -1.4216319 3.3171411 0 0 Z " fill="#525E68" transform="translate(122,181)"/>
<path d="M0 0 C2.31 0.33 4.62 0.66 7 1 C7 2.65 7 4.3 7 6 C4.69 5.01 2.38 4.02 0 3 C0 2.01 0 1.02 0 0 Z " fill="#2D3946" transform="translate(279,175)"/>
<path d="M0 0 C0.66 0.33 1.32 0.66 2 1 C1.3125 3.4375 1.3125 3.4375 0 6 C-2.625 6.8125 -2.625 6.8125 -5 7 C-5 4 -5 4 -3 1 C-2.01 0.67 -1.02 0.34 0 0 Z " fill="#0D1B26" transform="translate(293,297)"/>
<path d="M0 0 C0 0.99 0 1.98 0 3 C-0.66 3 -1.32 3 -2 3 C-2.33 4.65 -2.66 6.3 -3 8 C-3.99 8 -4.98 8 -6 8 C-5.62403791 5.21788056 -5.32681541 3.4120716 -3.5625 1.1875 C-2 0 -2 0 0 0 Z " fill="#8F173C" transform="translate(266,227)"/>
<path d="M0 0 C2.97 0.495 2.97 0.495 6 1 C5.67 2.32 5.34 3.64 5 5 C6.32 5.99 7.64 6.98 9 8 C8.01 8.33 7.02 8.66 6 9 C5.34 8.67 4.68 8.34 4 8 C4 7.34 4 6.68 4 6 C3.34 6 2.68 6 2 6 C0 3 0 3 0 0 Z " fill="#9B3B58" transform="translate(231,226)"/>
<path d="M0 0 C3.48330216 0.64505596 6.09432866 1.98217268 9 4 C9 4.66 9 5.32 9 6 C9.66 6 10.32 6 11 6 C10.67 6.66 10.34 7.32 10 8 C9.01 7.67 8.02 7.34 7 7 C7 6.34 7 5.68 7 5 C6.360625 4.896875 5.72125 4.79375 5.0625 4.6875 C4.381875 4.460625 3.70125 4.23375 3 4 C2.67 3.01 2.34 2.02 2 1 C1.34 0.67 0.68 0.34 0 0 Z " fill="#BC657C" transform="translate(256,197)"/>
<path d="M0 0 C4 4.75 4 4.75 4 7 C0.85262818 6.30058404 -2.02588876 5.23921302 -5 4 C-4.0409375 3.8453125 -4.0409375 3.8453125 -3.0625 3.6875 C-2.381875 3.460625 -1.70125 3.23375 -1 3 C-0.67 2.01 -0.34 1.02 0 0 Z " fill="#333F4D" transform="translate(186,329)"/>
<path d="M0 0 C0.99 0.33 1.98 0.66 3 1 C2.34 1.66 1.68 2.32 1 3 C1 3.99 1 4.98 1 6 C-1.31 6.66 -3.62 7.32 -6 8 C-4.625 5.5 -4.625 5.5 -3 3 C-2.34 3 -1.68 3 -1 3 C-0.67 2.01 -0.34 1.02 0 0 Z " fill="#410D25" transform="translate(319,317)"/>
<path d="M0 0 C0.99 0.33 1.98 0.66 3 1 C2.3125 3.4375 2.3125 3.4375 1 6 C-1.625 6.8125 -1.625 6.8125 -4 7 C-4 5.68 -4 4.36 -4 3 C-3.01 2.67 -2.02 2.34 -1 2 C-0.67 1.34 -0.34 0.68 0 0 Z " fill="#101C2C" transform="translate(206,211)"/>
<path d="M0 0 C-1.29299694 2.88437779 -2.65941363 4.87219421 -5 7 C-6.32 6.34 -7.64 5.68 -9 5 C-8.01 4.67 -7.02 4.34 -6 4 C-6 3.34 -6 2.68 -6 2 C-2.25 0 -2.25 0 0 0 Z " fill="#596C78" transform="translate(177,119)"/>
<path d="M0 0 C1.65 0.33 3.3 0.66 5 1 C4.67 1.99 4.34 2.98 4 4 C1.69 4 -0.62 4 -3 4 C-3 3.34 -3 2.68 -3 2 C-2.01 2 -1.02 2 0 2 C0 1.34 0 0.68 0 0 Z " fill="#444D5A" transform="translate(217,352)"/>
<path d="M0 0 C0.66 0.33 1.32 0.66 2 1 C1.1875 3.9375 1.1875 3.9375 0 7 C-0.99 7.33 -1.98 7.66 -3 8 C-3 8.99 -3 9.98 -3 11 C-3.66 11 -4.32 11 -5 11 C-3.55049545 7.2089881 -1.84827434 3.6125362 0 0 Z " fill="#8C566B" transform="translate(307,248)"/>
<path d="M0 0 C1.5625 1.25 1.5625 1.25 3 3 C2.6875 5.1875 2.6875 5.1875 2 7 C1.34 7 0.68 7 0 7 C-0.33 8.32 -0.66 9.64 -1 11 C-1.0270043 9.54176788 -1.04639787 8.08339325 -1.0625 6.625 C-1.07410156 5.81289062 -1.08570312 5.00078125 -1.09765625 4.1640625 C-1 2 -1 2 0 0 Z " fill="#1A2735" transform="translate(116,210)"/>
<path d="M0 0 C1.32 0 2.64 0 4 0 C3 2 2 4 1 6 C0.01 5.67 -0.98 5.34 -2 5 C-1.125 1.125 -1.125 1.125 0 0 Z " fill="#3B4F5D" transform="translate(166,125)"/>
<path d="M0 0 C-1 3 -1 3 -2.875 4.125 C-4.55705727 4.81761182 -6.27427551 5.4247585 -8 6 C-8 5.34 -8 4.68 -8 4 C-8.66 3.67 -9.32 3.34 -10 3 C-3.375 0 -3.375 0 0 0 Z " fill="#7B5767" transform="translate(286,341)"/>
<path d="M0 0 C0.66 0.99 1.32 1.98 2 3 C0.625 5.5 0.625 5.5 -1 8 C-1.66 8 -2.32 8 -3 8 C-3.33 8.66 -3.66 9.32 -4 10 C-4.33 8.68 -4.66 7.36 -5 6 C-4.01 6 -3.02 6 -2 6 C-2.33 5.01 -2.66 4.02 -3 3 C-2.34 3 -1.68 3 -1 3 C-0.67 2.01 -0.34 1.02 0 0 Z " fill="#72495C" transform="translate(354,302)"/>
<path d="M0 0 C0.99 0.33 1.98 0.66 3 1 C0.11912454 3.40072955 -2.56404834 5.47291037 -6 7 C-6 6.01 -6 5.02 -6 4 C-3.1875 1.75 -3.1875 1.75 0 0 Z " fill="#874656" transform="translate(321,271)"/>
<path d="M0 0 C0.33 0.99 0.66 1.98 1 3 C1.66 3.33 2.32 3.66 3 4 C2.67 7.96 2.34 11.92 2 16 C1.67 16 1.34 16 1 16 C0.67 10.72 0.34 5.44 0 0 Z " fill="#6F7A84" transform="translate(114,236)"/>
<path d="M0 0 C0.99 0.33 1.98 0.66 3 1 C1.35 3.64 -0.3 6.28 -2 9 C-2.66 8.67 -3.32 8.34 -4 8 C-4 7.34 -4 6.68 -4 6 C-3.34 6 -2.68 6 -2 6 C-2.33 4.68 -2.66 3.36 -3 2 C-2.01 1.34 -1.02 0.68 0 0 Z " fill="#526777" transform="translate(198,168)"/>
<path d="M0 0 C-2.44579177 2.30925485 -3.59442134 2.99001814 -7.015625 3.07421875 C-8.08296875 2.94660156 -9.1503125 2.81898437 -10.25 2.6875 C-11.32765625 2.56761719 -12.4053125 2.44773437 -13.515625 2.32421875 C-14.33546875 2.21722656 -15.1553125 2.11023438 -16 2 C-16 1.67 -16 1.34 -16 1 C-10.65097076 0.40801257 -5.39115154 -0.14187241 0 0 Z " fill="#68747D" transform="translate(234,101)"/>
<path d="M0 0 C1.65 0 3.3 0 5 0 C5 0.99 5 1.98 5 3 C5.99 3.33 6.98 3.66 8 4 C8 4.99 8 5.98 8 7 C7.34 7 6.68 7 6 7 C6 6.34 6 5.68 6 5 C5.34 5 4.68 5 4 5 C4 4.34 4 3.68 4 3 C3.34 3 2.68 3 2 3 C2 2.34 2 1.68 2 1 C1.34 0.67 0.68 0.34 0 0 Z " fill="#4A535B" transform="translate(147,309)"/>
<path d="M0 0 C0.33 1.32 0.66 2.64 1 4 C-3.75 6.875 -3.75 6.875 -6 8 C-4.52307692 2.33846154 -4.52307692 2.33846154 -1.875 0.625 C-0.946875 0.315625 -0.946875 0.315625 0 0 Z " fill="#AE1339" transform="translate(238,202)"/>
<path d="M0 0 C-1.3125 1.5 -1.3125 1.5 -3 3 C-5.66666667 3 -8.33333333 3 -11 3 C-10 1 -10 1 -7.1875 -0.1875 C-4.14038924 -0.96421451 -2.86250637 -1.10096399 0 0 Z " fill="#596879" transform="translate(208,107)"/>
<path d="M0 0 C0.99 0.99 1.98 1.98 3 3 C1.35 4.32 -0.3 5.64 -2 7 C-4 6 -4 6 -5 4 C-4.0409375 3.8453125 -4.0409375 3.8453125 -3.0625 3.6875 C-2.381875 3.460625 -1.70125 3.23375 -1 3 C-0.67 2.01 -0.34 1.02 0 0 Z " fill="#805B6C" transform="translate(314,337)"/>
<path d="M0 0 C0.33 0.66 0.66 1.32 1 2 C-0.32 3.65 -1.64 5.3 -3 7 C-3 6.34 -3 5.68 -3 5 C-3.99 4.67 -4.98 4.34 -6 4 C-4.02 2.68 -2.04 1.36 0 0 Z " fill="#7E5062" transform="translate(370,280)"/>
<path d="M0 0 C1.98 0 3.96 0 6 0 C5.01 0.66 4.02 1.32 3 2 C1.79549696 4.55183404 1.79549696 4.55183404 1 7 C0.34 6.67 -0.32 6.34 -1 6 C-0.67 4.02 -0.34 2.04 0 0 Z " fill="#714654" transform="translate(338,243)"/>
<path d="M0 0 C0.99 0.99 1.98 1.98 3 3 C1.35 4.65 -0.3 6.3 -2 8 C-2.20086443 4.28400809 -2.1519437 3.22791555 0 0 Z " fill="#750C2D" transform="translate(315,235)"/>
<path d="M0 0 C1.32 0.66 2.64 1.32 4 2 C4 2.99 4 3.98 4 5 C4.99 5.33 5.98 5.66 7 6 C4.125 5.75 4.125 5.75 1 5 C-0.375 2.9375 -0.375 2.9375 -1 1 C-0.67 0.67 -0.34 0.34 0 0 Z " fill="#5A6375" transform="translate(244,174)"/>
<path d="M0 0 C0.99 0.33 1.98 0.66 3 1 C2.67 1.66 2.34 2.32 2 3 C1.34 3 0.68 3 0 3 C0 3.99 0 4.98 0 6 C-1.32 6.33 -2.64 6.66 -4 7 C-2.68 4.69 -1.36 2.38 0 0 Z " fill="#735061" transform="translate(331,299)"/>
<path d="M0 0 C0.66 1.32 1.32 2.64 2 4 C1.34 4 0.68 4 0 4 C0.33 5.98 0.66 7.96 1 10 C0.01 10.33 -0.98 10.66 -2 11 C-1.34 7.37 -0.68 3.74 0 0 Z " fill="#98556C" transform="translate(314,227)"/>
<path d="M0 0 C1.65 0 3.3 0 5 0 C4.34 1.32 3.68 2.64 3 4 C1.35 4 -0.3 4 -2 4 C-1.34 2.68 -0.68 1.36 0 0 Z " fill="#111E2F" transform="translate(247,165)"/>
<path d="M0 0 C2.0625 0.4375 2.0625 0.4375 4 1 C4 1.66 4 2.32 4 3 C3.34 3.66 2.68 4.32 2 5 C0.68 5 -0.64 5 -2 5 C-1.125 1.125 -1.125 1.125 0 0 Z " fill="#071425" transform="translate(246,358)"/>
<path d="M0 0 C0.99 0.33 1.98 0.66 3 1 C3.33 3.31 3.66 5.62 4 8 C3.67 7.01 3.34 6.02 3 5 C2.01 4.67 1.02 4.34 0 4 C-0.33 3.34 -0.66 2.68 -1 2 C-0.67 1.34 -0.34 0.68 0 0 Z " fill="#606C7D" transform="translate(250,351)"/>
<path d="M0 0 C0.66 0.33 1.32 0.66 2 1 C0.875 3.5 0.875 3.5 -1 6 C-4.1875 6.3125 -4.1875 6.3125 -7 6 C-4.82575883 3.49962266 -3.26954202 2.56371414 0 2 C0 1.34 0 0.68 0 0 Z " fill="#957281" transform="translate(304,328)"/>
<path d="M0 0 C0.66 0.33 1.32 0.66 2 1 C1.34 2.98 0.68 4.96 0 7 C-0.33 6.34 -0.66 5.68 -1 5 C-1.66 4.67 -2.32 4.34 -3 4 C-1 1 -1 1 0 0 Z " fill="#4E5B6E" transform="translate(328,284)"/>
<path d="M0 0 C1.65 0 3.3 0 5 0 C5 0.66 5 1.32 5 2 C3.35 2.33 1.7 2.66 0 3 C0 3.99 0 4.98 0 6 C-0.66 5.67 -1.32 5.34 -2 5 C-1.34 3.35 -0.68 1.7 0 0 Z " fill="#4F0922" transform="translate(338,240)"/>
<path d="M0 0 C1.74627478 2.61941217 2.38722388 4.03824877 3 7 C1.68 7 0.36 7 -1 7 C-0.67 4.69 -0.34 2.38 0 0 Z " fill="#33434D" transform="translate(124,177)"/>
<path d="M0 0 C0.66 0.66 1.32 1.32 2 2 C1.625 5.125 1.625 5.125 1 8 C-0.5625 6.1875 -0.5625 6.1875 -2 4 C-1 1 -1 1 0 0 Z " fill="#6E7884" transform="translate(286,178)"/>
<path d="M0 0 C2.31 0 4.62 0 7 0 C7 0.99 7 1.98 7 3 C5.68 3.33 4.36 3.66 3 4 C3 3.34 3 2.68 3 2 C2.01 2 1.02 2 0 2 C0 1.34 0 0.68 0 0 Z " fill="#3E505D" transform="translate(234,130)"/>
<path d="M0 0 C2.97 0.495 2.97 0.495 6 1 C6 1.66 6 2.32 6 3 C3.69 3 1.38 3 -1 3 C-0.67 2.01 -0.34 1.02 0 0 Z " fill="#764C62" transform="translate(268,353)"/>
<path d="M0 0 C0.66 0.33 1.32 0.66 2 1 C1.01 1.66 0.02 2.32 -1 3 C-1.72382467 5.05925139 -1.72382467 5.05925139 -2 7 C-2.66 7 -3.32 7 -4 7 C-4 5.35 -4 3.7 -4 2 C-2.125 0.9375 -2.125 0.9375 0 0 Z " fill="#7B5A68" transform="translate(268,347)"/>
<path d="M0 0 C0.99 0.99 1.98 1.98 3 3 C2.67 3.99 2.34 4.98 2 6 C0.35 4.35 -1.3 2.7 -3 1 C-2.01 0.67 -1.02 0.34 0 0 Z " fill="#495862" transform="translate(158,315)"/>
<path d="M0 0 C0.33 0 0.66 0 1 0 C1.3125 2.25 1.3125 2.25 1 5 C-1.5 7.3125 -1.5 7.3125 -4 9 C-3.35499066 5.51694958 -1.95865224 2.93797836 0 0 Z " fill="#4E122A" transform="translate(363,287)"/>
<path d="M0 0 C-0.33 0.99 -0.66 1.98 -1 3 C-3.31 3 -5.62 3 -8 3 C-8 2.34 -8 1.68 -8 1 C-5.07175348 0.02391783 -3.04386724 -0.08226668 0 0 Z " fill="#530C25" transform="translate(266,284)"/>
<path d="M0 0 C0.99 0.495 0.99 0.495 2 1 C2 1.66 2 2.32 2 3 C2.66 3 3.32 3 4 3 C4 3.66 4 4.32 4 5 C4.66 5.33 5.32 5.66 6 6 C5.34 6 4.68 6 4 6 C4 6.66 4 7.32 4 8 C3.34 8 2.68 8 2 8 C1.34 5.36 0.68 2.72 0 0 Z " fill="#4C565D" transform="translate(207,269)"/>
<path d="M0 0 C1.5625 1.1875 1.5625 1.1875 3 3 C2.6875 5.6875 2.6875 5.6875 2 8 C1.01 8 0.02 8 -1 8 C-0.67 5.36 -0.34 2.72 0 0 Z " fill="#404E5D" transform="translate(202,263)"/>
<path d="M0 0 C1.98 0.66 3.96 1.32 6 2 C6 2.66 6 3.32 6 4 C4.02 4 2.04 4 0 4 C0 2.68 0 1.36 0 0 Z " fill="#C3082C" transform="translate(368,230)"/>
<path d="M0 0 C0.99 0 1.98 0 3 0 C3 1.65 3 3.3 3 5 C3.66 5.33 4.32 5.66 5 6 C4.01 7.485 4.01 7.485 3 9 C2.01 6.03 1.02 3.06 0 0 Z " fill="#CC566D" transform="translate(306,181)"/>
<path d="M0 0 C2.475 0.99 2.475 0.99 5 2 C4.01 2.495 4.01 2.495 3 3 C2.67 3.99 2.34 4.98 2 6 C1.01 4.68 0.02 3.36 -1 2 C-0.67 1.34 -0.34 0.68 0 0 Z " fill="#0F2730" transform="translate(279,178)"/>
<path d="M0 0 C2.05078125 0.03255208 4.1015625 0.06510417 6.15234375 0.09765625 C6.15234375 0.42765625 6.15234375 0.75765625 6.15234375 1.09765625 C3.84234375 1.09765625 1.53234375 1.09765625 -0.84765625 1.09765625 C-1.17765625 2.08765625 -1.50765625 3.07765625 -1.84765625 4.09765625 C-2.83765625 4.42765625 -3.82765625 4.75765625 -4.84765625 5.09765625 C-2.44354091 0.12915121 -2.44354091 0.12915121 0 0 Z " fill="#70747C" transform="translate(216.84765625,174.90234375)"/>
<path d="M0 0 C0.33 0 0.66 0 1 0 C0.67 2.64 0.34 5.28 0 8 C-0.99 8 -1.98 8 -3 8 C-2.67 6.68 -2.34 5.36 -2 4 C-1.34 4 -0.68 4 0 4 C0 2.68 0 1.36 0 0 Z " fill="#6D7A86" transform="translate(256,169)"/>
<path d="M0 0 C0.33 1.32 0.66 2.64 1 4 C-0.32 4.33 -1.64 4.66 -3 5 C-3 5.66 -3 6.32 -3 7 C-3.66 6.67 -4.32 6.34 -5 6 C-3.35 4.02 -1.7 2.04 0 0 Z " fill="#78838A" transform="translate(149,140)"/>
<path d="M0 0 C0.66 0.66 1.32 1.32 2 2 C0.68 3.32 -0.64 4.64 -2 6 C-2.66 5.01 -3.32 4.02 -4 3 C-3.34 3 -2.68 3 -2 3 C-2 2.34 -2 1.68 -2 1 C-1.34 0.67 -0.68 0.34 0 0 Z " fill="#253D51" transform="translate(158,136)"/>
</svg>
